<svg width="1400" height="900" viewBox="0 0 1400 900" fill="none" xmlns="http://www.w3.org/2000/svg">
  <rect width="1400" height="900" rx="36" fill="#07111F"/>
  <rect x="70" y="70" width="1260" height="760" rx="28" fill="#0F1D33" stroke="#244463" stroke-width="2"/>
  <rect x="160" y="140" width="260" height="140" rx="20" fill="#0E2748" stroke="#2E7BBF" stroke-width="2"/>
  <text x="230" y="210" fill="#F8FAFC" font-family="Inter, Segoe UI, sans-serif" font-size="28" font-weight="600">Azure Front Door</text>
  <text x="190" y="248" fill="#8ED4FF" font-family="Inter, Segoe UI, sans-serif" font-size="18">Secure entry point</text>

  <rect x="470" y="140" width="260" height="140" rx="20" fill="#0E2748" stroke="#2E7BBF" stroke-width="2"/>
  <text x="535" y="210" fill="#F8FAFC" font-family="Inter, Segoe UI, sans-serif" font-size="28" font-weight="600">Virtual Network</text>
  <text x="500" y="248" fill="#8ED4FF" font-family="Inter, Segoe UI, sans-serif" font-size="18">8 secure subnets</text>

  <rect x="780" y="140" width="260" height="140" rx="20" fill="#0E2748" stroke="#2E7BBF" stroke-width="2"/>
  <text x="835" y="210" fill="#F8FAFC" font-family="Inter, Segoe UI, sans-serif" font-size="28" font-weight="600">Bastion + Admin</text>
  <text x="815" y="248" fill="#8ED4FF" font-family="Inter, Segoe UI, sans-serif" font-size="18">Protected management</text>

  <rect x="230" y="360" width="240" height="140" rx="20" fill="#0E2748" stroke="#2E7BBF" stroke-width="2"/>
  <text x="290" y="430" fill="#F8FAFC" font-family="Inter, Segoe UI, sans-serif" font-size="28" font-weight="600">VM Tier</text>
  <text x="255" y="468" fill="#8ED4FF" font-family="Inter, Segoe UI, sans-serif" font-size="18">Campus workloads</text>

  <rect x="520" y="360" width="240" height="140" rx="20" fill="#0E2748" stroke="#2E7BBF" stroke-width="2"/>
  <text x="585" y="430" fill="#F8FAFC" font-family="Inter, Segoe UI, sans-serif" font-size="28" font-weight="600">Storage Tier</text>
  <text x="555" y="468" fill="#8ED4FF" font-family="Inter, Segoe UI, sans-serif" font-size="18">Blob + backup</text>

  <rect x="810" y="360" width="240" height="140" rx="20" fill="#0E2748" stroke="#2E7BBF" stroke-width="2"/>
  <text x="875" y="430" fill="#F8FAFC" font-family="Inter, Segoe UI, sans-serif" font-size="28" font-weight="600">Identity Layer</text>
  <text x="845" y="468" fill="#8ED4FF" font-family="Inter, Segoe UI, sans-serif" font-size="18">Entra ID + RBAC</text>

  <rect x="430" y="620" width="300" height="140" rx="20" fill="#0E2748" stroke="#2E7BBF" stroke-width="2"/>
  <text x="510" y="690" fill="#F8FAFC" font-family="Inter, Segoe UI, sans-serif" font-size="28" font-weight="600">Governance Stack</text>
  <text x="470" y="728" fill="#8ED4FF" font-family="Inter, Segoe UI, sans-serif" font-size="18">Policy + Recovery Vault</text>

  <path d="M420 210H470" stroke="#38BDF8" stroke-width="4" stroke-linecap="round"/>
  <path d="M730 210H780" stroke="#38BDF8" stroke-width="4" stroke-linecap="round"/>
  <path d="M350 280V360" stroke="#38BDF8" stroke-width="4" stroke-linecap="round"/>
  <path d="M600 280V360" stroke="#38BDF8" stroke-width="4" stroke-linecap="round"/>
  <path d="M910 280V360" stroke="#38BDF8" stroke-width="4" stroke-linecap="round"/>
  <path d="M600 500V620" stroke="#38BDF8" stroke-width="4" stroke-linecap="round"/>
  <path d="M580 620L360 500" stroke="#38BDF8" stroke-width="4" stroke-linecap="round"/>
  <path d="M620 620L930 500" stroke="#38BDF8" stroke-width="4" stroke-linecap="round"/>
</svg>
